<svg xmlns="http://www.w3.org/2000/svg" viewBox="0 0 1600 1000" role="img" aria-label="Segelboot bei Sonnenuntergang mit Mann, blonder Frau und Katze">
<defs>
  <linearGradient id="sky" x1="0" y1="0" x2="0" y2="1"><stop offset="0" stop-color="#172c58"/><stop offset=".42" stop-color="#6c5f86"/><stop offset=".73" stop-color="#e88a77"/><stop offset="1" stop-color="#ffbc7e"/></linearGradient>
  <radialGradient id="sunGlow"><stop offset="0" stop-color="#fffbd8" stop-opacity=".95"/><stop offset=".3" stop-color="#ffd981" stop-opacity=".62"/><stop offset="1" stop-color="#ffb66e" stop-opacity="0"/></radialGradient>
  <linearGradient id="sea" x1="0" y1="0" x2="0" y2="1"><stop stop-color="#294b76"/><stop offset=".55" stop-color="#173a63"/><stop offset="1" stop-color="#102a50"/></linearGradient>
  <linearGradient id="hull" x1="0" y1="0" x2="1" y2="1"><stop stop-color="#9a5f38"/><stop offset=".55" stop-color="#5b3528"/><stop offset="1" stop-color="#2f2224"/></linearGradient>
  <linearGradient id="sail" x1="0" y1="0" x2="1" y2="1"><stop stop-color="#fff4de"/><stop offset=".6" stop-color="#e9d0bc"/><stop offset="1" stop-color="#c8a58f"/></linearGradient>
  <filter id="blur"><feGaussianBlur stdDeviation="18"/></filter>
  <filter id="soft"><feGaussianBlur stdDeviation="5"/></filter>
  <filter id="shadow" x="-30%" y="-30%" width="160%" height="160%"><feDropShadow dx="0" dy="16" stdDeviation="18" flood-color="#09172c" flood-opacity=".42"/></filter>
  <filter id="glow" x="-50%" y="-50%" width="200%" height="200%"><feGaussianBlur stdDeviation="7" result="b"/><feMerge><feMergeNode in="b"/><feMergeNode in="SourceGraphic"/></feMerge></filter>
</defs>
<rect width="1600" height="1000" fill="url(#sky)"/>
<circle cx="1035" cy="620" r="235" fill="url(#sunGlow)" filter="url(#blur)"/>
<circle cx="1035" cy="635" r="55" fill="#fff4bd"/>
<g fill="#fff" opacity=".75">
 <circle cx="84" cy="84" r="2"/><circle cx="173" cy="142" r="1.7"/><circle cx="335" cy="71" r="2"/><circle cx="1315" cy="92" r="1.8"/><circle cx="1460" cy="178" r="2"/><circle cx="1180" cy="136" r="1.4"/><circle cx="910" cy="96" r="1.5"/>
</g>
<path d="M365 126 C520 35 655 58 718 160 C769 243 698 324 616 321 C536 318 485 233 529 176 C575 116 681 132 729 210" fill="none" stroke="#ffc77e" stroke-width="5" stroke-linecap="round" opacity=".78" filter="url(#glow)"/>
<path d="M150 646 C230 596 330 606 405 642 C330 650 245 650 150 646Z" fill="#243556" opacity=".85"/>
<path d="M1260 648 C1335 585 1420 577 1495 620 L1600 670 L1600 720 L1230 700Z" fill="#263653" opacity=".95"/>
<g transform="translate(1447 555)">
 <rect x="0" y="32" width="28" height="92" rx="3" fill="#f2eee6"/><rect x="-8" y="25" width="44" height="14" rx="4" fill="#2c354c"/><polygon points="2,25 14,0 26,25" fill="#3c4051"/><rect x="8" y="54" width="12" height="18" fill="#ffd775"/><rect x="8" y="83" width="12" height="18" fill="#ffd775"/>
</g>
<rect y="670" width="1600" height="330" fill="url(#sea)"/>
<path d="M0 710 Q120 680 240 710 T480 710 T720 710 T960 710 T1200 710 T1440 710 T1680 710" fill="none" stroke="#f9c899" stroke-opacity=".38" stroke-width="8"/>
<path d="M0 772 Q110 742 220 772 T440 772 T660 772 T880 772 T1100 772 T1320 772 T1540 772 T1760 772" fill="none" stroke="#93b4d6" stroke-opacity=".28" stroke-width="6"/>
<path d="M0 855 Q90 825 180 855 T360 855 T540 855 T720 855 T900 855 T1080 855 T1260 855 T1440 855 T1620 855" fill="none" stroke="#6c93bf" stroke-opacity=".24" stroke-width="5"/>
<path d="M1035 675 C1005 735 980 800 968 1000 H1125 C1103 808 1087 740 1055 675Z" fill="#ffc67b" opacity=".18"/>
<g filter="url(#shadow)" transform="translate(0 5)">
 <path d="M505 761 C636 730 929 729 1064 758 C1035 850 943 901 790 905 C644 905 551 860 505 761Z" fill="url(#hull)" stroke="#2e2225" stroke-width="8"/>
 <path d="M525 770 C659 747 928 747 1044 770" fill="none" stroke="#c68c55" stroke-width="8" opacity=".72"/>
 <path d="M563 816 C694 839 897 842 1007 807" fill="none" stroke="#d69a59" stroke-opacity=".32" stroke-width="5"/>
 <rect x="626" y="378" width="14" height="385" rx="6" fill="#4a3028"/>
 <rect x="632" y="391" width="5" height="370" fill="#b48054" opacity=".45"/>
 <path d="M631 412 L628 733 L460 714 Z" fill="url(#sail)" stroke="#6e5348" stroke-width="5"/>
 <path d="M648 441 L648 724 L847 715 Z" fill="#f7e2cf" stroke="#6e5348" stroke-width="5" opacity=".94"/>
 <path d="M631 420 L466 709" stroke="#8c6957" stroke-width="3" opacity=".65"/>
 <path d="M648 444 L840 710" stroke="#8c6957" stroke-width="3" opacity=".58"/>
 <text x="520" y="545" transform="rotate(-7 520 545)" font-family="Georgia,serif" font-size="25" font-style="italic" fill="#443536">Auf zu</text>
 <text x="500" y="579" transform="rotate(-7 500 579)" font-family="Georgia,serif" font-size="25" font-style="italic" fill="#443536">neuen</text>
 <text x="486" y="613" transform="rotate(-7 486 613)" font-family="Georgia,serif" font-size="25" font-style="italic" fill="#443536">Abenteuern ♡</text>
 <!-- man -->
 <circle cx="755" cy="674" r="43" fill="#d0a07e"/>
 <path d="M716 668 C720 620 788 613 800 658 C785 646 768 647 753 640 C740 655 725 659 716 668Z" fill="#2d2224"/>
 <path d="M695 783 C696 724 714 688 754 687 C794 688 817 727 816 787Z" fill="#252836"/>
 <path d="M808 716 C838 720 856 737 874 755" fill="none" stroke="#252836" stroke-width="23" stroke-linecap="round"/>
 <!-- woman blonde -->
 <circle cx="850" cy="682" r="40" fill="#e0ad83"/>
 <circle cx="850" cy="627" r="23" fill="#d5a34f"/>
 <path d="M817 671 C819 631 878 626 886 670 C871 650 835 650 817 671Z" fill="#d8ad59"/>
 <path d="M809 789 C811 728 827 696 852 696 C888 696 910 731 911 792Z" fill="#bc8299"/>
 <path d="M824 696 C849 719 873 712 889 695" fill="none" stroke="#e7bdd0" stroke-width="8" opacity=".7"/>
 <!-- cat -->
 <ellipse cx="947" cy="755" rx="34" ry="48" fill="#b76a35"/>
 <circle cx="944" cy="706" r="29" fill="#c9783a"/>
 <polygon points="922,687 928,660 941,686" fill="#c9783a"/><polygon points="950,684 968,660 967,692" fill="#c9783a"/>
 <path d="M975 760 C1018 744 1018 706 994 697" fill="none" stroke="#b76a35" stroke-width="12" stroke-linecap="round"/>
 <circle cx="936" cy="703" r="3" fill="#2e2622"/><circle cx="953" cy="703" r="3" fill="#2e2622"/>
 <!-- lantern -->
 <g transform="translate(528 780)"><rect x="-16" y="12" width="38" height="52" rx="7" fill="#3e2b26"/><rect x="-9" y="21" width="24" height="33" rx="4" fill="#ffd56d" opacity=".9" filter="url(#glow)"/><path d="M-8 13 Q3 -8 14 13" fill="none" stroke="#3e2b26" stroke-width="5"/></g>
 <text x="718" y="844" font-family="Georgia,serif" font-size="27" font-style="italic" fill="#e9c9aa" opacity=".88">Kathleens Kiste ♥</text>
</g>
<g fill="none" stroke="#fff" stroke-width="4" stroke-linecap="round" opacity=".62">
 <path d="M238 416 q15-22 30 0 q15-22 30 0"/><path d="M1310 290 q13-18 26 0 q13-18 26 0"/>
</g>
<g fill="#fff" opacity=".9" font-family="Arial,sans-serif"><circle cx="1208" cy="357" r="3"/><circle cx="1219" cy="344" r="2"/><circle cx="1193" cy="339" r="2"/></g>
</svg>